<svg width="32" height="32" viewBox="0 0 32 32" fill="none" xmlns="http://www.w3.org/2000/svg">
<path d="M24.291 14.276L14.705 4.68999C13.827 3.81199 12.388 3.81199 11.51 4.68999L10.71 5.48999C9.83201 6.36699 9.83201 7.80599 10.71 8.68399L18.024 16L10.709 23.315C9.83101 24.193 9.83101 25.632 10.709 26.509L11.509 27.309C12.387 28.188 13.826 28.188 14.704 27.309L24.29 17.722C24.762 17.251 24.972 16.619 24.937 15.999C24.973 15.38 24.763 14.748 24.291 14.276Z" fill="#667EEA"/>
<path d="M24.291 14.276L14.705 4.68999C13.827 3.81199 12.388 3.81199 11.51 4.68999L10.71 5.48999C9.83201 6.36699 9.83201 7.80599 10.71 8.68399L18.024 16L10.709 23.315C9.83101 24.193 9.83101 25.632 10.709 26.509L11.509 27.309C12.387 28.188 13.826 28.188 14.704 27.309L24.29 17.722C24.762 17.251 24.972 16.619 24.937 15.999C24.973 15.38 24.763 14.748 24.291 14.276Z" fill="url(#paint0_linear)"/>
<defs>
<linearGradient id="paint0_linear" x1="17.4957" y1="4.03149" x2="17.4957" y2="27.9682" gradientUnits="userSpaceOnUse">
<stop stop-color="#764BA2"/>
<stop offset="0.239583" stop-color="#9B7CBB" stop-opacity="0.729167"/>
<stop offset="1" stop-color="white" stop-opacity="0"/>
</linearGradient>
</defs>
</svg>
