<?xml version="1.0" encoding="UTF-8"?>
<svg fill="none" viewBox="0 0 682 729" xmlns="http://www.w3.org/2000/svg">
<g clip-path="url(#z)">
<path d="m128.15 116.08 11.04-4.26 2.9 6.31 1.34 15.08-2.47 1.79-12.81-18.92z" fill="#000"/>
<path d="m181.79 145.78-12.61 7.29 13.25 19.54 3.09-2.25 1.92-15.51-5.65-9.07z" fill="#000"/>
<g fill="#000" opacity=".05">
<path d="m208.24 54.75c-2.54 3.84-4.91 8-5.64 10.92l2-1.38c-0.25-2.17 1.4-5.77 3.64-9.54z" opacity=".05"/>
<path d="m219.61 107.01 1.39-29.23c-31 19.67-76.36 37.62-76.36 37.62l-2.19 3.47s45.41-17.95 76.36-37.62l-1.3 27.53 2.1-1.77z" opacity=".05"/>
</g>
<g opacity=".5">
<path d="m138.46 136.42 2.54-1.85-1.37-15.53-2.99-6.49-11.37 4.39 13.19 19.48z" fill="url(#y)" opacity=".5"/>
<path d="m311.58 1.88c-6.91-3.32-12.08-1.76-15.7 1-3.232 2.4336-5.755 5.6854-7.31 9.42l-1 2.65-4.68 3.4-1.52-3.25s-16.57-29.44-65.45 28.05l-0.22-0.18s-4.16 5.09-7.95 10.8l-0.54 0.82-0.24 0.37-0.34 0.53-0.25 0.4-0.38 0.63-0.33 0.54-0.35 0.59-0.25 0.43-0.26 0.45-0.25 0.45-0.26 0.48-0.38 0.72-0.21 0.4-0.23 0.47-0.17 0.36-0.22 0.47-0.14 0.31c-0.12 0.28-0.233 0.5533-0.34 0.82l-0.12 0.31-0.16 0.44-0.1 0.3c-0.073 0.2267-0.14 0.45-0.2 0.67 0 0.12-0.07 0.23-0.09 0.34-0.196 0.7022-0.27 1.4327-0.22 2.16l-65.08 45.29 3.34 7.26s46.77-18.48 78.65-38.75l-1.34 28.35-0.08 1.75s-29.12 24.11-36.7 36.39l-13 7.51 13.65 20.12 3.18-2.31 2-16 53.43-42.71s10.13-18.51 10.31-34l2.19 8.45s4.66 13.09 7.95 13.61 3.3-10.15 1-13.32-1.22-24.35-1.22-24.35l0.6-4.31 8.36-6.08 0.31-0.29 0.44 2.66 1.68 0.15v0.12l0.08 0.77 1.08 20.19 5.92 22.84s4.66 13.09 7.95 13.61 3.3-10.15 1-13.32-1.21-24.34-1.21-24.34l2.44-17.63v-0.34l0.05-0.39 4.81 0.42s5-17.19-3.37-24.68l-1.52-3.25 3.12-2.26 0.63-0.45c2.644 2.5866 6.196 4.0351 9.895 4.0351s7.251-1.4485 9.895-4.0351c2.339 0.2176 4.68-0.4065 6.6-1.76l1.21-0.87c1.302-0.8266 2.477-1.837 3.49-3 0.85-1.58-1.18-15.3-11.88-20.43z" fill="url(#n)" opacity=".5"/>
</g>
<path d="m216 44.27s-14.23 17.4-13.56 23.5l-63.24 44.05 3.24 7.05s45.41-17.95 76.36-37.62l-1.38 29.27s-28.27 23.37-35.62 35.3l5.65 9.07 51.88-41.47s15.39-28.12 8-43.46l-31.33-25.69z" fill="#535461"/>
<path d="m671.79 470.52c-45.55 182.68-230.59 293.87-413.31 248.31s-293.84-230.61-248.26-413.31 230.57-293.9 413.23-248.35 293.89 230.62 248.34 413.35z" fill="#FDCA3E"/>
<path d="m491.36 339.42c6.79-45.38-27.76-69.77-75-86l15.33-61.47-37.42-9.33-14.93 59.8c-9.84-2.45-19.94-4.76-30-7.06l15-60.25-37.34-9.31-15.34 61.45c-8.14-1.85-16.14-3.69-23.89-5.62v-0.19l-51.57-12.92-10 40s27.76 6.36 27.18 6.76c15.15 3.78 17.89 13.81 17.44 21.76l-17.46 70c1.323 0.331 2.622 0.748 3.89 1.25-1.25-0.31-2.58-0.65-4-1l-24.47 98.1c-1.85 4.6-6.55 11.51-17.15 8.89 0.37 0.54-27.2-6.79-27.2-6.79l-18.43 42.88 48.64 12.15c9.06 2.27 17.94 4.65 26.68 6.88l-15.48 62.12 37.38 9.33 15.34-61.51c10.21 2.77 20.12 5.33 29.82 7.74l-15.28 61.23 37.42 9.33 15.48-62.03c63.81 12.07 111.79 7.2 132-50.51 16.27-46.47-0.81-73.27-34.38-90.75 24.38-5.63 42.83-21.71 47.74-54.93zm-85.49 119.88c-11.56 46.47-89.8 21.35-115.16 15l20.55-82.37c25.36 6.38 106.74 18.91 94.61 67.37zm11.57-120.56c-10.55 42.27-75.67 20.79-96.79 15.53l18.63-74.75c21.13 5.31 89.15 15.14 78.16 59.22z" fill="#292865"/>
<path d="m269.49 47.23 1.64 30.8 5.74 22.17s4.52 12.71 7.72 13.21 3.21-9.86 1-12.94-1.15-23.63-1.15-23.63l3.56-26.15-18.51-3.46z" fill="#FDA57D"/>
<path d="m267.58 52.39 0.83 5 23.14 2s4.84-16.69-3.28-24l-20.69 17z" fill="#F55F44"/>
<path d="m288.27 35.46-8.55-18.25s-16.15-28.69-63.85 27.59l31.46 25.12 20.36-14.8 20.58-19.66z" fill="#F55F44"/>
<path d="m295.01 10.342 7.608 10.467-16.607 12.07c-1.159 0.842-2.604 1.1893-4.019 0.9655s-2.682-1.0004-3.524-2.1589l-1.253-1.7229c-0.842-1.1585-1.189-2.6041-0.965-4.0186 0.224-1.4146 1-2.6824 2.159-3.5244l16.607-12.07-6e-3 -0.0081z" fill="#FDA57D"/>
<path d="m286.18 16.76c-0.651 2.3468-0.656 4.8258-0.016 7.1755 0.641 2.3497 1.904 4.4829 3.656 6.1745l7.85-5.71-7.61-10.47-3.88 2.83z" fill="#000" opacity=".05"/>
<path d="m308.08 30.935c6.134-4.4581 7.5-13.034 3.052-19.154-4.448-6.1205-13.027-7.4681-19.161-3.0099-6.134 4.4581-7.5 13.034-3.052 19.154 4.449 6.1205 13.027 7.4681 19.161 3.0099z" fill="#FDA57D"/>
<path d="m293.68 11.77-7.93 5.3 1-2.58s6.52-17 21.72-9.67c10.39 5 12.36 18.3 11.57 19.82-1.173 1.2757-2.519 2.3798-4 3.28-1.951 1.3824-4.348 1.9829-6.72 1.6829-2.372-0.2999-4.545-1.4785-6.09-3.3029-2.66-3.17-7.3-9.73-6.45-13.49-0.78-1.42-1.8-2-3.11-1l0.01-0.04z" fill="#000" opacity=".05"/>
<path d="m294.3 11.32-7.93 5.3 1-2.58s6.52-17 21.72-9.67c10.39 5 12.36 18.3 11.57 19.82-1.173 1.2756-2.519 2.3798-4 3.28-1.951 1.3823-4.348 1.9829-6.72 1.6829-2.372-0.2999-4.545-1.4785-6.09-3.3029-2.66-3.17-7.3-9.73-6.45-13.49-0.78-1.42-1.8-2-3.11-1l0.01-0.04z" fill="#5A2F32"/>
<path d="m296.98 12.201c1.364-0.9939 2.069-2.3507 1.573-3.0307-0.495-0.67997-2.003-0.42554-3.367 0.5683-1.364 0.99381-2.069 2.3507-1.574 3.0307 0.496 0.68 2.003 0.4255 3.368-0.5683z" fill="#FDA57D"/>
<path d="m265.03 54.71 3.63-3.11 0.04 4.91-0.79-1.89-2.88 0.09z" fill="#000" opacity=".05"/>
<path d="m270.01 57.67 0.08 0.76 16.69 1.3 0.1-0.71-16.87-1.35z" fill="#000" opacity=".05"/>
<path d="m244.07 35.6 1.64 30.8 5.74 22.12s4.52 12.71 7.72 13.21 3.21-9.86 1-12.94-1.17-23.58-1.17-23.58l3.62-26.15-18.55-3.46z" fill="#FDA57D"/>
<path d="m380.22 270.77h-1.74v1.74h1.74v-1.74z" fill="#ccc"/>
<path d="m377.35 273.39h4.3c0.309 0 0.614 0.061 0.899 0.179s0.544 0.291 0.763 0.509c0.218 0.219 0.391 0.478 0.509 0.763s0.179 0.59 0.179 0.899v14.49h-9v-14.49c0-0.309 0.061-0.614 0.179-0.899s0.291-0.544 0.509-0.763c0.219-0.218 0.478-0.391 0.763-0.509s0.59-0.179 0.899-0.179z" fill="#535461"/>
<path d="m381.97 272.23h-5.23v1.16h5.23v-1.16z" fill="#F7931A"/>
<path d="m384 280.06h-9v3.48h9v-3.48z" fill="#F7931A"/>
<path d="m380.23 271.06v0.87c-0.32 0-0.58-0.2-0.58-0.44s0.26-0.43 0.58-0.43z" fill="#E6E6E6"/>
<path d="m245.91 20.62s-3.82 10.31-2.2 13.83z" fill="#000" opacity=".05"/>
<path d="m244.15 35.07-0.01 1.91 18.33 3.08 0.22-1.53-18.54-3.46z" fill="#000" opacity=".05"/>
<path d="m248.29 19.36-4.22 16.24 18.54 3.46 4.9-20.5-19.22 0.8z" fill="#F55F44"/>
<g opacity=".5">
<path d="m247.66 75.61 3.65 13.82s4.71 13 8 13.49 3.34-10.07 1-13.21c-1.23-1.65-1.49-8.23-1.47-14.1h-11.18z" fill="url(#h)" opacity=".5"/>
</g>
<path d="m247.95 75.61 3.51 13.53s4.52 12.71 7.72 13.21 3.21-9.86 1-12.94c-1.18-1.62-1.43-8.06-1.41-13.8h-10.82z" fill="#FDA57D"/>
<g opacity=".5">
<path d="m285.07 75.04h-14.6l0.2 3.66 6.08 22.82s4.79 13.08 8.17 13.6 3.39-10.15 1-13.31-1.19-24.29-1.19-24.29l0.34-2.48z" fill="url(#g)" opacity=".5"/>
</g>
<path d="m284.74 75.04h-13.8l0.19 3.56 5.74 22.17s4.52 12.71 7.72 13.21 3.21-9.86 1-12.94-1.15-23.63-1.15-23.63l0.3-2.37z" fill="#FDA57D"/>
<path d="m380 271 25-5 1 12-26-6v-1z" fill="#535461" opacity=".2"/>
<g opacity=".5">
<path d="m342.28 274.7 0.69 0.3 22 9.47 28.03-33.25s4.25-4.75-0.81-8-8.24 5.16-8.24 5.16l-21.54 23.14-18.3-9.15 0.29-1.92-16.68-9.64c-0.323-0.607-0.677-1.198-1.06-1.77l-0.15-0.54-0.83-0.73c-0.16-0.17-0.32-0.33-0.48-0.47l2.76-3c2.054 0.72 4.24 0.979 6.405 0.76s4.256-0.911 6.124-2.027 3.467-2.629 4.686-4.432c1.218-1.803 2.026-3.852 2.365-6.001 1.292 0.246 2.618 0.246 3.91 0 1.698-0.357 3.285-1.12 4.626-2.222 1.34-1.102 2.395-2.511 3.074-4.108-0.057 0.108-0.138 0.201-0.237 0.272s-0.213 0.118-0.333 0.138c0.215-0.374 0.405-0.762 0.57-1.16-0.57 1.38-5.9-0.52-6.7-1-2.44-1.3-3.7-3.22-5-5.58-2.49-4.66-7.09-6.38-12.27-6.79-3.958-0.429-7.961 0.075-11.69 1.47-1.857 0.71-3.548 1.798-4.964 3.193-1.417 1.396-2.529 3.07-3.266 4.917-0.446 1.267-0.65 2.607-0.6 3.95-0.085 1.438 0.154 2.877 0.697 4.211s1.378 2.529 2.443 3.499c0.182 0.157 0.372 0.304 0.57 0.44 0.11 0.43 0.23 0.85 0.38 1.27l-0.73 0.79-4.74 5.14-0.24-0.07-49.93 7.47v0.1c-1.66-1.1-9.18-4.92-27.95 0.27-7.09 2-18.9 1.75-31.58 0.58-8.86-11.02-14.58-45.34-14.58-45.34l-2.24-9.71-29.07 6.72s13.41 3 15.65 6.72c3.41 1.14 5.52 26.61 6.33 38.63-17.41-2.69-31.67-5.77-31.67-5.77l-10.43-3.73-7.45 26.14s8.2-9 15.65-9.71c0 0 37.26 17.92 64.84 14.19 10.74-1.45 21.12 3.09 29.81 4.48 7.607 1.268 15.291 2.016 23 2.24l0.09 8.21s30.69-1.32 50.85-7.72c1.53 4.14 2.76 7.13 3.19 7.35l3.66-1.79 20.56 25.31 40.23-16.44s6-2.24 3-7.47-9.69 0.75-9.69 0.75l-29.81 10.45-12.58-17.44-0.49-0.68 2.64-1.29s-0.08-0.39-0.24-1.06l6.94 5.54 0.51-3.26z" fill="url(#f)" opacity=".5"/>
</g>
<path d="m317.96 253.33-9.21-8.54 15.25-16.53 9.21 8.53-15.25 16.54z" fill="#FDA57D"/>
<path d="m323.27 228.98-6.73 7.3c0.726 2.051 1.904 3.913 3.446 5.449 1.542 1.535 3.409 2.704 5.464 3.421l7-7.63-9.18-8.54z" fill="#000" opacity=".05"/>
<path d="m325.25 267.63 36.93 15.89 27.29-32.34s4.13-4.62-0.79-7.78-8 5-8 5l-21 22.48-26.95-13.46-7.48 10.21z" fill="#FDA57D"/>
<path d="m323.31 249.24 18.85 10.89-2.54 17.07-17.76-14.16 1.45-13.8z" fill="#fff"/>
<path d="m330.92 245.25c8.008 0 14.5-6.505 14.5-14.53s-6.492-14.53-14.5-14.53-14.5 6.505-14.5 14.53 6.492 14.53 14.5 14.53z" fill="#FDA57D"/>
<path d="m319 243.43-7.25-2.18-48.6 7.27 0.36 33s59.08-2.54 65.6-17.79l-4.35-15.21-5.76-5.09z" fill="#fff"/>
<path d="m322.43 263.48 17.19 13.72 0.73-5.81-17.04-16.34-0.88 8.43z" fill="#000" opacity=".05"/>
<path d="m263.51 248.87s-6.52-5.81-27.54 0-84.81-8-84.81-8l-2.16 12.36s36.24 17.43 63.06 13.8c10.44-1.41 20.54 3 29 4.36 7.425 1.227 14.927 1.939 22.45 2.13v-24.65z" fill="#4D8AF0"/>
<path d="m151.16 240.88-10.16-3.63-7.25 25.42s8-8.72 15.22-9.44l2.19-12.35z" fill="#535461"/>
<path d="m175.8 208.93 15.2-3.63s7.25 43.58 18.12 47.21h-26.79s-2.18-42.13-6.53-43.58z" fill="#4D8AF0"/>
<path d="m191 205.3-2.17-9.44-28.27 6.54s13 2.91 15.22 6.54l15.22-3.64z" fill="#535461"/>
<path d="m333.23 213.92c-3.85-0.417-7.743 0.073-11.37 1.43-1.806 0.691-3.449 1.749-4.826 3.107s-2.458 2.987-3.174 4.783c-1.3 3.64-0.46 8.11 2.48 10.61 0.698 0.659 1.595 1.067 2.55 1.16 1.54 0.06 2.83-1.07 4-2.05 2.221-1.834 4.668-3.376 7.28-4.59 2.22-1 4.93-1.8 7-0.53 0.937 0.696 1.786 1.501 2.53 2.4 1.198 1.191 2.671 2.068 4.289 2.555s3.331 0.568 4.987 0.236c1.657-0.332 3.206-1.067 4.511-2.14s2.326-2.45 2.973-4.011c-0.56 1.35-5.74-0.51-6.52-0.92-2.38-1.26-3.6-3.13-4.82-5.42-2.38-4.55-6.86-6.22-11.89-6.62z" fill="#000" opacity=".05"/>
<path d="m333.23 213.2c-3.85-0.417-7.743 0.073-11.37 1.43-1.806 0.691-3.449 1.749-4.826 3.107s-2.458 2.987-3.174 4.783c-1.3 3.64-0.46 8.11 2.48 10.61 0.698 0.659 1.595 1.067 2.55 1.16 1.54 0.06 2.83-1.07 4-2.05 2.221-1.834 4.668-3.376 7.28-4.59 2.22-1 4.93-1.8 7-0.53 0.937 0.696 1.786 1.501 2.53 2.4 1.198 1.191 2.671 2.068 4.289 2.555s3.331 0.568 4.987 0.236c1.657-0.332 3.206-1.067 4.511-2.14s2.326-2.45 2.973-4.011c-0.56 1.35-5.74-0.51-6.52-0.92-2.38-1.26-3.6-3.13-4.82-5.42-2.38-4.55-6.86-6.23-11.89-6.62z" fill="#000"/>
<path d="m327.27 229.52c0.278-1.171 0.028-2.233-0.557-2.372-0.586-0.139-1.286 0.698-1.564 1.869-0.278 1.172-0.029 2.234 0.557 2.373s1.286-0.698 1.564-1.87z" fill="#FDA57D"/>
<path d="m319.62 279.45 0.49 0.6 10.9-5.29-0.48-0.66-10.91 5.35z" fill="#000" opacity=".05"/>
<path d="m341.88 262-1.78 11.93 0.66 0.38 1.4-12.18-0.28-0.13z" fill="#000" opacity=".05"/>
<path d="m284.53 231.44h-8.7v58.83h8.7v-58.83z" fill="#E0E0E0"/>
<path d="m268.09 69.51-8.247-2.7706-18.735 55.767 8.247 2.771 18.735-55.767z" fill="#E0E0E0"/>
<path d="m281.63 237.98h-2.9v-142.06l2.86 0.15 0.04 141.91z" fill="#E0E0E0"/>
<path d="m314.25 272.84 25.37 31.23 39.14-16s5.8-2.18 2.9-7.26-9.42 0.73-9.42 0.73l-29 10.17-17.64-24.45-11.35 5.58z" fill="#FDA57D"/>
<path d="m303.74 247.06s10.87 33.41 12.32 34.13l17-8.35s-4.83-22.53-10.21-26-18.38-2.69-19.11 0.22z" fill="#fff"/>
<path d="m306.84 256.43s-0.57 12.78 3.06 15z" fill="#000" opacity=".05"/>
<path d="m278.75 96.07-13.08-19.33 1.37-4.09 14.55 23.42h-2.84z" fill="#E0E0E0"/>
<path d="m345.23 236.01-1.891-1.257-3.171 4.773 1.891 1.256 3.171-4.772z" fill="#000"/>
<path d="m342.58 235.78-14.015-9.318-0.631 0.949 14.015 9.319 0.631-0.95z" fill="#000"/>
<g opacity=".7">
<path d="m604.26 613.9h-36.32v26.84h36.32v-26.84z" fill="url(#e)" opacity=".7"/>
<g opacity=".1">
<path d="m567.94 621.01s13.55 1.58 18.16 1.58 18.16-1.58 18.16-1.58v-6.71h-36.32v6.71z" fill="url(#d)" opacity=".1"/>
</g>
<path d="m604.26 620.61s-13.55 1.58-18.16 1.58-18.16-1.58-18.16-1.58v-26.45c0-4.816 1.913-9.435 5.319-12.841s8.025-5.319 12.841-5.319 9.435 1.913 12.841 5.319 5.319 8.025 5.319 12.841v26.45z" fill="url(#c)" opacity=".7"/>
<path d="m586.1 581.14c-1.151 0-2.255-0.457-3.069-1.271s-1.271-1.918-1.271-3.069v-9.87h8.68v9.87c0 1.151-0.457 2.255-1.271 3.069s-1.918 1.271-3.069 1.271z" fill="url(#b)" opacity=".7"/>
<path d="m580.97 631.27h-13.03v88.43h13.03v-88.43z" fill="url(#a)" opacity=".7"/>
<path d="m604.26 631.27h-13.03v88.43h13.03v-88.43z" fill="url(#x)" opacity=".7"/>
<g opacity=".1">
<path d="m581.76 573.52c2.851 0.701 5.829 0.701 8.68 0v-6.2h-8.68v6.2z" fill="url(#w)" opacity=".1"/>
</g>
<path d="m586.1 570.08c10.466 0 18.95-8.484 18.95-18.95s-8.484-18.95-18.95-18.95-18.95 8.484-18.95 18.95 8.484 18.95 18.95 18.95z" fill="url(#v)" opacity=".7"/>
<path d="m586.1 573.64c10.029 0 18.16-8.131 18.16-18.16 0-10.03-8.131-18.16-18.16-18.16-10.03 0-18.16 8.13-18.16 18.16 0 10.029 8.13 18.16 18.16 18.16z" fill="url(#u)" opacity=".7"/>
<g opacity=".1">
<path d="m575.1 546.37c0.991 0.548 2.083 0.888 3.21 1 4.651 0.634 9.386 0.102 13.78-1.55 0.412 0.891 1.014 1.682 1.764 2.316 0.749 0.634 1.629 1.096 2.576 1.354 1.897 0.502 3.859 0.721 5.82 0.65 0.431 0.047 0.867-0.036 1.25-0.24 0.87-0.59 0.45-1.94-0.06-2.86l-2.53-4.59c-0.673-1.397-1.579-2.669-2.68-3.76-1.53-1.207-3.351-1.99-5.28-2.27-4.491-0.894-9.128-0.74-13.55 0.45-4.71 1.25-10.78 5.58-4.3 9.5z" fill="url(#t)" opacity=".1"/>
</g>
<path d="m575.1 545.98c0.991 0.548 2.083 0.888 3.21 1 4.651 0.635 9.386 0.102 13.78-1.55 0.412 0.891 1.014 1.682 1.764 2.316 0.749 0.634 1.629 1.096 2.576 1.354 1.897 0.502 3.859 0.721 5.82 0.65 0.431 0.047 0.867-0.036 1.25-0.24 0.87-0.59 0.45-1.94-0.06-2.86l-2.53-4.59c-0.673-1.397-1.579-2.669-2.68-3.76-1.53-1.207-3.351-1.99-5.28-2.27-4.491-0.894-9.128-0.74-13.55 0.45-4.71 1.25-10.78 5.57-4.3 9.5z" fill="url(#s)" opacity=".7"/>
<path d="m604.06 558.44c0.873 0 1.58-1.325 1.58-2.96s-0.707-2.96-1.58-2.96-1.58 1.325-1.58 2.96 0.707 2.96 1.58 2.96z" fill="url(#r)" opacity=".7"/>
<path d="m568.14 558.44c0.873 0 1.58-1.325 1.58-2.96s-0.707-2.96-1.58-2.96-1.58 1.325-1.58 2.96 0.707 2.96 1.58 2.96z" fill="url(#q)" opacity=".7"/>
<path d="m634.66 536.53c2.397 0 4.34-1.943 4.34-4.34s-1.943-4.34-4.34-4.34-4.34 1.943-4.34 4.34 1.943 4.34 4.34 4.34z" fill="url(#p)" opacity=".7"/>
<path d="m585.66 595.07c0 0.734-0.079 1.369-0.237 1.906s-0.373 0.981-0.645 1.332-0.592 0.614-0.959 0.787c-0.363 0.17-0.752 0.255-1.166 0.255-0.415 0-0.803-0.085-1.167-0.255-0.363-0.173-0.68-0.436-0.953-0.787-0.272-0.351-0.487-0.795-0.645-1.332-0.154-0.537-0.231-1.172-0.231-1.906s0.077-1.37 0.231-1.907c0.158-0.536 0.373-0.98 0.645-1.332 0.273-0.351 0.59-0.611 0.953-0.781 0.364-0.174 0.752-0.261 1.167-0.261 0.414 0 0.803 0.087 1.166 0.261 0.367 0.17 0.687 0.43 0.959 0.781 0.272 0.352 0.487 0.796 0.645 1.332 0.158 0.537 0.237 1.173 0.237 1.907zm-0.592 0c0-0.679-0.065-1.259-0.195-1.741-0.131-0.481-0.306-0.874-0.527-1.178-0.217-0.308-0.474-0.533-0.77-0.675-0.292-0.142-0.6-0.213-0.923-0.213-0.324 0-0.632 0.071-0.924 0.213s-0.548 0.367-0.769 0.675c-0.221 0.304-0.397 0.697-0.527 1.178-0.131 0.482-0.196 1.062-0.196 1.741 0 0.682 0.065 1.265 0.196 1.746 0.13 0.478 0.306 0.87 0.527 1.178 0.221 0.304 0.477 0.527 0.769 0.669 0.292 0.138 0.6 0.207 0.924 0.207 0.323 0 0.631-0.069 0.923-0.207 0.296-0.142 0.553-0.365 0.77-0.669 0.221-0.308 0.396-0.7 0.527-1.178 0.13-0.481 0.195-1.064 0.195-1.746zm7.46 0c0 0.734-0.079 1.369-0.237 1.906s-0.373 0.981-0.645 1.332-0.592 0.614-0.959 0.787c-0.363 0.17-0.752 0.255-1.166 0.255-0.415 0-0.803-0.085-1.166-0.255-0.364-0.173-0.681-0.436-0.954-0.787-0.272-0.351-0.487-0.795-0.645-1.332-0.154-0.537-0.231-1.172-0.231-1.906s0.077-1.37 0.231-1.907c0.158-0.536 0.373-0.98 0.645-1.332 0.273-0.351 0.59-0.611 0.954-0.781 0.363-0.174 0.751-0.261 1.166-0.261 0.414 0 0.803 0.087 1.166 0.261 0.367 0.17 0.687 0.43 0.959 0.781 0.272 0.352 0.487 0.796 0.645 1.332 0.158 0.537 0.237 1.173 0.237 1.907zm-0.592 0c0-0.679-0.065-1.259-0.195-1.741-0.13-0.481-0.306-0.874-0.527-1.178-0.217-0.308-0.474-0.533-0.77-0.675-0.292-0.142-0.6-0.213-0.923-0.213-0.324 0-0.632 0.071-0.924 0.213s-0.548 0.367-0.769 0.675c-0.221 0.304-0.397 0.697-0.527 1.178-0.13 0.482-0.196 1.062-0.196 1.741 0 0.682 0.066 1.265 0.196 1.746 0.13 0.478 0.306 0.87 0.527 1.178 0.221 0.304 0.477 0.527 0.769 0.669 0.292 0.138 0.6 0.207 0.924 0.207 0.323 0 0.631-0.069 0.923-0.207 0.296-0.142 0.553-0.365 0.77-0.669 0.221-0.308 0.397-0.7 0.527-1.178 0.13-0.481 0.195-1.064 0.195-1.746z" fill="#000" opacity=".7"/>
<path d="m586.5 562.58s-10.26 3.55-18.16-4.34c0 0 0.64 2.62 1.74 5.77 1.779 3.373 4.575 6.101 7.992 7.795 3.416 1.695 7.28 2.272 11.042 1.647 3.762-0.624 7.233-2.416 9.919-5.124 2.686-2.707 4.452-6.191 5.047-9.958-1.9 1.02-15.39 7.51-17.58 4.21zm-0.39 4.74c-2 0-3.55-1.5-3.55-2.37s1.59-0.79 3.55-0.79 3.55-0.08 3.55 0.79-1.6 2.37-3.56 2.37h0.01z" fill="url(#o)" opacity=".7"/>
<path d="m595.75 578.79s21.14-11.86 34.17-46.6l6.32 3.95s-10.46 44.27-36.71 54.48l-3.78-11.83z" fill="url(#m)" opacity=".7"/>
<path d="m537.55 536.53c2.397 0 4.34-1.943 4.34-4.34s-1.943-4.34-4.34-4.34-4.34 1.943-4.34 4.34 1.943 4.34 4.34 4.34z" fill="url(#l)" opacity=".7"/>
<path d="m576.45 578.79s-21.14-11.86-34.17-46.6l-6.28 3.94s10.46 44.27 36.71 54.48l3.74-11.82z" fill="url(#k)" opacity=".7"/>
<path d="m580.18 722.86h-11.45v-0.59c0-1.517 0.603-2.972 1.675-4.045 1.073-1.072 2.528-1.675 4.045-1.675s2.972 0.603 4.045 1.675c1.072 1.073 1.675 2.528 1.675 4.045l0.01 0.59z" fill="url(#j)" opacity=".7"/>
<path d="m603.47 722.86h-11.47v-0.59c0-1.517 0.603-2.972 1.675-4.045 1.073-1.072 2.528-1.675 4.045-1.675s2.972 0.603 4.045 1.675c1.072 1.073 1.675 2.528 1.675 4.045l0.03 0.59z" fill="url(#i)" opacity=".7"/>
</g>
<path d="m603.74 614.23h-35.27v26.07h35.27v-26.07z" fill="#398E31"/>
<path d="m568.47 621.13s13.16 1.53 17.63 1.53 17.63-1.53 17.63-1.53v-6.51h-35.26v6.51z" fill="#000" opacity=".1"/>
<path d="m581.88 568.62h8.43v9.58c0 1.119-0.445 2.193-1.236 2.984s-1.865 1.236-2.984 1.236-2.193-0.445-2.984-1.236-1.236-1.865-1.236-2.984v-9.58h0.01z" fill="#FDB797"/>
<path d="m581.12 631.1h-12.65v85.86h12.65v-85.86z" fill="#398E31"/>
<path d="m603.73 631.1h-12.65v85.86h12.65v-85.86z" fill="#398E31"/>
<path d="m581.89 575.01c2.769 0.681 5.661 0.681 8.43 0v-6h-8.43v6z" fill="#000" opacity=".1"/>
<path d="m586.1 571.69c10.162 0 18.4-8.238 18.4-18.4s-8.238-18.4-18.4-18.4-18.4 8.238-18.4 18.4 8.238 18.4 18.4 18.4z" fill="#292625"/>
<path d="m586.1 575.13c9.737 0 17.63-7.893 17.63-17.63s-7.893-17.63-17.63-17.63-17.63 7.893-17.63 17.63 7.893 17.63 17.63 17.63z" fill="#FDB797"/>
<path d="m575.42 548.66c0.965 0.522 2.027 0.842 3.12 0.94 4.515 0.618 9.113 0.102 13.38-1.5 0.4 0.867 0.985 1.636 1.714 2.253s1.585 1.066 2.506 1.317c1.842 0.487 3.746 0.699 5.65 0.63 0.421 0.049 0.846-0.032 1.22-0.23 0.85-0.57 0.44-1.88-0.06-2.78l-2.46-4.45c-0.652-1.356-1.532-2.59-2.6-3.65-1.487-1.171-3.256-1.93-5.13-2.2-4.362-0.868-8.866-0.717-13.16 0.44-4.6 1.22-10.48 5.42-4.18 9.23z" fill="#000" opacity=".1"/>
<path d="m575.42 548.28c0.965 0.522 2.027 0.842 3.12 0.94 4.515 0.618 9.113 0.102 13.38-1.5 0.4 0.867 0.985 1.636 1.714 2.253s1.585 1.066 2.506 1.317c1.842 0.487 3.746 0.699 5.65 0.63 0.421 0.049 0.846-0.032 1.22-0.23 0.85-0.57 0.44-1.88-0.06-2.78l-2.46-4.45c-0.652-1.356-1.532-2.59-2.6-3.65-1.487-1.171-3.256-1.93-5.13-2.2-4.362-0.868-8.866-0.717-13.16 0.44-4.6 1.22-10.48 5.42-4.18 9.23z" fill="#000"/>
<path d="m603.54 560.37c0.845 0 1.53-1.285 1.53-2.87s-0.685-2.87-1.53-2.87-1.53 1.285-1.53 2.87 0.685 2.87 1.53 2.87z" fill="#FDB797"/>
<path d="m568.66 560.37c0.845 0 1.53-1.285 1.53-2.87s-0.685-2.87-1.53-2.87-1.53 1.285-1.53 2.87 0.685 2.87 1.53 2.87z" fill="#FDB797"/>
<path d="m633.25 539.11c2.331 0 4.22-1.889 4.22-4.22s-1.889-4.22-4.22-4.22-4.22 1.889-4.22 4.22 1.889 4.22 4.22 4.22z" fill="#FDB797"/>
<path d="m586.49 564.4s-10 3.45-17.63-4.22c0 0 0.62 2.54 1.69 5.61 1.729 3.272 4.444 5.916 7.76 7.559s7.065 2.201 10.715 1.595c3.651-0.606 7.018-2.346 9.625-4.972 2.607-2.627 4.321-6.007 4.9-9.662-1.83 1-14.93 7.29-17.06 4.09zm-0.38 4.6c-1.91 0-3.45-1.45-3.45-2.3s1.54-0.77 3.45-0.77 3.45-0.08 3.45 0.77-1.56 2.3-3.46 2.3h0.01z" fill="#000"/>
<path d="m595.47 580.14s20.53-11.52 33.18-45.25l6.13 3.83s-10.16 43-35.65 52.9l-3.66-11.48z" fill="#f93" opacity=".33"/>
<path d="m538.95 539.11c2.331 0 4.22-1.889 4.22-4.22s-1.889-4.22-4.22-4.22-4.22 1.889-4.22 4.22 1.889 4.22 4.22 4.22z" fill="#FDB797"/>
<path d="m576.73 580.14s-20.53-11.52-33.18-45.25l-6.13 3.83s10.16 43 35.65 52.9l3.66-11.48z" fill="#f93"/>
<path d="m574.79 713.9c1.475 0 2.889 0.586 3.931 1.629 1.043 1.042 1.629 2.456 1.629 3.931v0.54h-11.11v-0.57c8e-3 -1.468 0.596-2.873 1.635-3.909 1.04-1.036 2.447-1.618 3.915-1.621z" fill="#333"/>
<path d="m597.41 713.9c1.475 0 2.889 0.586 3.931 1.629 1.043 1.042 1.629 2.456 1.629 3.931v0.54h-11.12v-0.57c8e-3 -1.469 0.597-2.876 1.639-3.912s2.452-1.618 3.921-1.618z" fill="#333"/>
<path d="m603.73 620.75s-13.16 1.53-17.63 1.53-17.63-1.53-17.63-1.53v-25.68c0-4.676 1.857-9.16 5.164-12.466 3.306-3.307 7.79-5.164 12.466-5.164s9.16 1.857 12.466 5.164c3.307 3.306 5.164 7.79 5.164 12.466v25.68z" fill="#fff"/>
</g>
<defs>
<linearGradient id="y" x1="133.13" x2="133.13" y1="136.42" y2="112.55" gradientUnits="userSpaceOnUse">
<stop stop-color="#808080" stop-opacity=".25" offset="0"/>
<stop stop-color="#808080" stop-opacity=".12" offset=".54"/>
<stop stop-color="#808080" stop-opacity=".1" offset="1"/>
</linearGradient>
<linearGradient id="n" x1="91604" x2="91604" y1="45649" y2="14972" gradientUnits="userSpaceOnUse">
<stop stop-color="#808080" stop-opacity=".25" offset="0"/>
<stop stop-color="#808080" stop-opacity=".12" offset=".54"/>
<stop stop-color="#808080" stop-opacity=".1" offset="1"/>
</linearGradient>
<linearGradient id="h" x1="7585" x2="7585" y1="5224.2" y2="4477.6" gradientUnits="userSpaceOnUse">
<stop stop-color="#808080" stop-opacity=".25" offset="0"/>
<stop stop-color="#808080" stop-opacity=".12" offset=".54"/>
<stop stop-color="#808080" stop-opacity=".1" offset="1"/>
</linearGradient>
<linearGradient id="g" x1="9487.3" x2="9487.3" y1="8119.2" y2="6511.6" gradientUnits="userSpaceOnUse">
<stop stop-color="#808080" stop-opacity=".25" offset="0"/>
<stop stop-color="#808080" stop-opacity=".12" offset=".54"/>
<stop stop-color="#808080" stop-opacity=".1" offset="1"/>
</linearGradient>
<linearGradient id="f" x1="138072" x2="138072" y1="43709" y2="31329" gradientUnits="userSpaceOnUse">
<stop stop-color="#808080" stop-opacity=".25" offset="0"/>
<stop stop-color="#808080" stop-opacity=".12" offset=".54"/>
<stop stop-color="#808080" stop-opacity=".1" offset="1"/>
</linearGradient>
<linearGradient id="e" x1="21196" x2="22515" y1="17451" y2="17451" gradientUnits="userSpaceOnUse">
<stop stop-color="#808080" stop-opacity=".25" offset="0"/>
<stop stop-color="#808080" stop-opacity=".12" offset=".54"/>
<stop stop-color="#808080" stop-opacity=".1" offset="1"/>
</linearGradient>
<linearGradient id="d" x1="30602" x2="31922" y1="6449.8" y2="6449.8" gradientUnits="userSpaceOnUse">
<stop stop-color="#808080" stop-opacity=".25" offset="0"/>
<stop stop-color="#808080" stop-opacity=".12" offset=".54"/>
<stop stop-color="#808080" stop-opacity=".1" offset="1"/>
</linearGradient>
<linearGradient id="c" x1="30602" x2="31922" y1="32197" y2="32197" gradientUnits="userSpaceOnUse">
<stop stop-color="#808080" stop-opacity=".25" offset="0"/>
<stop stop-color="#808080" stop-opacity=".12" offset=".54"/>
<stop stop-color="#808080" stop-opacity=".1" offset="1"/>
</linearGradient>
<linearGradient id="b" x1="7879.6" x2="7954.9" y1="9938.6" y2="9938.6" gradientUnits="userSpaceOnUse">
<stop stop-color="#808080" stop-opacity=".25" offset="0"/>
<stop stop-color="#808080" stop-opacity=".12" offset=".54"/>
<stop stop-color="#808080" stop-opacity=".1" offset="1"/>
</linearGradient>
<linearGradient id="a" x1="7968.2" x2="8138" y1="60364" y2="60364" gradientUnits="userSpaceOnUse">
<stop stop-color="#808080" stop-opacity=".25" offset="0"/>
<stop stop-color="#808080" stop-opacity=".12" offset=".54"/>
<stop stop-color="#808080" stop-opacity=".1" offset="1"/>
</linearGradient>
<linearGradient id="x" x1="8295" x2="8464.8" y1="60364" y2="60364" gradientUnits="userSpaceOnUse">
<stop stop-color="#808080" stop-opacity=".25" offset="0"/>
<stop stop-color="#808080" stop-opacity=".12" offset=".54"/>
<stop stop-color="#808080" stop-opacity=".1" offset="1"/>
</linearGradient>
<linearGradient id="w" x1="7879.6" x2="7954.9" y1="4980.6" y2="4980.6" gradientUnits="userSpaceOnUse">
<stop stop-color="#808080" stop-opacity=".25" offset="0"/>
<stop stop-color="#808080" stop-opacity=".12" offset=".54"/>
<stop stop-color="#808080" stop-opacity=".1" offset="1"/>
</linearGradient>
<linearGradient id="v" x1="22062" x2="23498" y1="21420" y2="21420" gradientUnits="userSpaceOnUse">
<stop stop-color="#808080" stop-opacity=".25" offset="0"/>
<stop stop-color="#808080" stop-opacity=".12" offset=".54"/>
<stop stop-color="#808080" stop-opacity=".1" offset="1"/>
</linearGradient>
<linearGradient id="u" x1="21196" x2="22515" y1="20712" y2="20712" gradientUnits="userSpaceOnUse">
<stop stop-color="#808080" stop-opacity=".25" offset="0"/>
<stop stop-color="#808080" stop-opacity=".12" offset=".54"/>
<stop stop-color="#808080" stop-opacity=".1" offset="1"/>
</linearGradient>
<linearGradient id="t" x1="26945" x2="27951" y1="9526.5" y2="9526.5" gradientUnits="userSpaceOnUse">
<stop stop-color="#808080" stop-opacity=".25" offset="0"/>
<stop stop-color="#808080" stop-opacity=".12" offset=".54"/>
<stop stop-color="#808080" stop-opacity=".1" offset="1"/>
</linearGradient>
<linearGradient id="s" x1="26945" x2="27951" y1="9520.4" y2="9520.4" gradientUnits="userSpaceOnUse">
<stop stop-color="#808080" stop-opacity=".25" offset="0"/>
<stop stop-color="#808080" stop-opacity=".12" offset=".54"/>
<stop stop-color="#808080" stop-opacity=".1" offset="1"/>
</linearGradient>
<linearGradient id="r" x1="2506.3" x2="2516.3" y1="3841" y2="3841" gradientUnits="userSpaceOnUse">
<stop stop-color="#808080" stop-opacity=".25" offset="0"/>
<stop stop-color="#808080" stop-opacity=".12" offset=".54"/>
<stop stop-color="#808080" stop-opacity=".1" offset="1"/>
</linearGradient>
<linearGradient id="q" x1="2356.9" x2="2366.9" y1="3841" y2="3841" gradientUnits="userSpaceOnUse">
<stop stop-color="#808080" stop-opacity=".25" offset="0"/>
<stop stop-color="#808080" stop-opacity=".12" offset=".54"/>
<stop stop-color="#808080" stop-opacity=".1" offset="1"/>
</linearGradient>
<linearGradient id="p" x1="6101.4" x2="6176.8" y1="5147.3" y2="5147.3" gradientUnits="userSpaceOnUse">
<stop stop-color="#808080" stop-opacity=".25" offset="0"/>
<stop stop-color="#808080" stop-opacity=".12" offset=".54"/>
<stop stop-color="#808080" stop-opacity=".1" offset="1"/>
</linearGradient>
<linearGradient id="o" x1="30138" x2="31413" y1="10627" y2="10627" gradientUnits="userSpaceOnUse">
<stop stop-color="#808080" stop-opacity=".25" offset="0"/>
<stop stop-color="#808080" stop-opacity=".12" offset=".54"/>
<stop stop-color="#808080" stop-opacity=".1" offset="1"/>
</linearGradient>
<linearGradient id="m" x1="35205" x2="36844" y1="38329" y2="38329" gradientUnits="userSpaceOnUse">
<stop stop-color="#808080" stop-opacity=".25" offset="0"/>
<stop stop-color="#808080" stop-opacity=".12" offset=".54"/>
<stop stop-color="#808080" stop-opacity=".1" offset="1"/>
</linearGradient>
<linearGradient id="l" x1="5161.4" x2="5236.8" y1="5147.3" y2="5147.3" gradientUnits="userSpaceOnUse">
<stop stop-color="#808080" stop-opacity=".25" offset="0"/>
<stop stop-color="#808080" stop-opacity=".12" offset=".54"/>
<stop stop-color="#808080" stop-opacity=".1" offset="1"/>
</linearGradient>
<linearGradient id="k" x1="32692" x2="34330" y1="38323" y2="38323" gradientUnits="userSpaceOnUse">
<stop stop-color="#808080" stop-opacity=".25" offset="0"/>
<stop stop-color="#808080" stop-opacity=".12" offset=".54"/>
<stop stop-color="#808080" stop-opacity=".1" offset="1"/>
</linearGradient>
<linearGradient id="j" x1="10046" x2="10177" y1="5797.2" y2="5797.2" gradientUnits="userSpaceOnUse">
<stop stop-color="#808080" stop-opacity=".25" offset="0"/>
<stop stop-color="#808080" stop-opacity=".12" offset=".54"/>
<stop stop-color="#808080" stop-opacity=".1" offset="1"/>
</linearGradient>
<linearGradient id="i" x1="10353" x2="10484" y1="5797.2" y2="5797.2" gradientUnits="userSpaceOnUse">
<stop stop-color="#808080" stop-opacity=".25" offset="0"/>
<stop stop-color="#808080" stop-opacity=".12" offset=".54"/>
<stop stop-color="#808080" stop-opacity=".1" offset="1"/>
</linearGradient>
<clipPath id="z">
<rect width="682" height="729.04" fill="#fff"/>
</clipPath>
</defs>
</svg>
