<svg xmlns="http://www.w3.org/2000/svg" width="25.618" height="31.542" viewBox="0 0 25.618 31.542">
  <g id="Login" transform="translate(-68.074 -76.349)">
    <g id="Group_71" data-name="Group 71" transform="translate(68.074 76.349)">
      <path id="Path_346" data-name="Path 346" d="M307.926,567.452c-3.1,0-6.209.008-9.313,0-2.62-.01-3.778-1.433-3.3-4.025a12.9,12.9,0,0,1,25.406-.036c.493,2.6-.709,4.055-3.383,4.062C314.2,567.458,311.061,567.452,307.926,567.452Z" transform="translate(-295.205 -535.913)" fill="#fff" fill-rule="evenodd"/>
      <path id="Path_347" data-name="Path 347" d="M406.161,261.258a7.364,7.364,0,0,1-7.335,7.456,7.439,7.439,0,0,1-.036-14.878A7.364,7.364,0,0,1,406.161,261.258Z" transform="translate(-385.957 -253.836)" fill="#fff" fill-rule="evenodd"/>
    </g>
  </g>
</svg>
