<svg width="548" height="603" viewBox="0 0 548 603" fill="none" xmlns="http://www.w3.org/2000/svg">
<path d="M520.179 25.0256C520.175 25.025 520.171 25.0245 520.166 25.024C520.268 25.0441 520.281 25.038 520.179 25.0256Z" fill="#B71846" stroke="#2B5876" stroke-width="18"/>
<path d="M55.4796 577.972L55.4797 577.972C59.0276 576.198 62.7983 570.636 62.1577 555.271C61.5584 540.896 57.1445 522.727 51.1167 504.29C45.1499 486.039 37.8729 468.327 32.0535 455.12C29.3529 448.99 26.9806 443.863 25.2202 440.142H23.0361L35.0172 584.651C37.6121 584.681 43.7182 583.853 55.4796 577.972ZM60.8387 588.69L60.8461 588.705L60.8387 588.69Z" fill="white" stroke="#2B5876" stroke-width="18"/>
<path d="M44.7472 564.734C44.7472 573.561 51.9047 580.719 60.7318 580.719H481.4C493.704 580.719 503.212 569.943 501.692 557.819C485.17 426.066 372.532 324.119 236.158 324.484L44.7472 324.996V564.734Z" fill="white" stroke="#2B5876" stroke-width="18"/>
<path d="M501.934 47.1273L501.935 47.1265C503.172 36.3074 494.605 26.6906 483.527 26.6906L73.5347 26.6892C57.636 26.6892 44.7476 39.5785 44.7476 55.4765V300.794L226.585 297.284C369.563 294.525 486.073 185.937 501.934 47.1273Z" fill="white" stroke="#2B5876" stroke-width="18"/>
<path d="M507.836 48.7809C430.23 177.232 97.8076 186.404 27.4831 309.697C-7.15607 370.425 29.7509 601.88 32.8349 589.345C67.6509 447.823 401.423 301.399 478.398 170.542C491.779 147.796 526.569 79.5558 534.596 13.9929C535.167 9.34163 520.415 27.9586 507.836 48.7809Z" fill="white" stroke="#2B5876" stroke-width="19"/>
</svg>
